<?xml version="1.0" encoding="UTF-8" standalone="no"?>
<svg
   xmlns:dc="http://purl.org/dc/elements/1.1/"
   xmlns:cc="http://creativecommons.org/ns#"
   xmlns:rdf="http://www.w3.org/1999/02/22-rdf-syntax-ns#"
   xmlns:svg="http://www.w3.org/2000/svg"
   xmlns="http://www.w3.org/2000/svg"
   xmlns:sodipodi="http://sodipodi.sourceforge.net/DTD/sodipodi-0.dtd"
   xmlns:inkscape="http://www.inkscape.org/namespaces/inkscape"
   width="21.177805mm"
   height="21.959606mm"
   viewBox="0 0 21.177805 21.959606"
   version="1.1"
   id="svg51"
   inkscape:version="1.0.2 (e86c870879, 2021-01-15)"
   sodipodi:docname="placeholder.svg">
  <defs
     id="defs45" />
  <sodipodi:namedview
     id="base"
     pagecolor="#ffffff"
     bordercolor="#666666"
     borderopacity="1.0"
     inkscape:pageopacity="0.0"
     inkscape:pageshadow="2"
     inkscape:zoom="2.5835866"
     inkscape:cx="117.35395"
     inkscape:cy="53.507932"
     inkscape:document-units="mm"
     inkscape:current-layer="layer1"
     inkscape:document-rotation="0"
     showgrid="false"
     inkscape:window-width="1267"
     inkscape:window-height="1040"
     inkscape:window-x="2102"
     inkscape:window-y="92"
     inkscape:window-maximized="0" />
  <metadata
     id="metadata48">
    <rdf:RDF>
      <cc:Work
         rdf:about="">
        <dc:format>image/svg+xml</dc:format>
        <dc:type
           rdf:resource="http://purl.org/dc/dcmitype/StillImage" />
        <dc:title></dc:title>
      </cc:Work>
    </rdf:RDF>
  </metadata>
  <g
     inkscape:label="Layer 1"
     inkscape:groupmode="layer"
     id="layer1"
     transform="translate(-25.030914,-87.886063)">
    <path
       style="fill: #abb5b7;"
       d="m 29.255384,103.87834 h -1.122421 c 0,0 -0.07358,-2.15336 0.181036,-3.18623 0.209424,-0.849553 0.652126,-1.629957 1.086215,-2.389672 0.563118,-0.985534 1.309595,-1.85436 1.955186,-2.787951 0.913907,-1.321603 1.901806,-2.597256 2.715538,-3.982789 0.628681,-1.070449 1.665528,-3.331056 1.665528,-3.331056 0,0 1.302994,2.781934 2.100016,4.091408 0.778326,1.278757 2.606916,3.512095 2.606916,3.656922 0,0.144831 1.597703,2.286158 2.172428,3.548304 0.382809,0.840684 0.832765,2.643124 0.832765,2.643124 0,0 -1.566583,-0.58674 -2.389671,-0.65173 -1.331329,-0.10512 -2.678535,0.14741 -3.982789,0.43448 -1.293397,0.28468 -2.499215,0.87953 -3.765545,1.26725 -0.909926,0.2786 -2.751743,0.76036 -2.751743,0.76036 0,0 -0.289877,-1.65287 -0.144828,-2.46209 0.227884,-1.27135 1.412079,-3.439681 1.556906,-3.548303 0.144831,-0.108622 2.208639,-3.367268 2.208639,-3.512095 0,-0.144828 1.155209,-1.828549 1.412078,-2.860366 0.09917,-0.398366 0.03621,-1.231042 0.03621,-1.231042 0,0 -0.549076,0.662441 -0.796557,1.013798 -1.083683,1.538542 -2.005006,3.185261 -3.005193,4.779346 -0.870316,1.387098 -1.991569,2.646311 -2.606916,4.163822 -0.259742,0.64055 -0.462987,1.33698 -0.434485,2.0276 0.02236,0.54171 0.470687,1.55691 0.470687,1.55691 z"
       id="path71"
       sodipodi:nodetypes="ccsssscssscssscsssscssssc" />
    <path
       style="fill:#2ba0da;"
       d="m 25.345012,103.48006 c 0,0 1.840612,1.05438 2.896573,1.30345 1.13949,0.26879 2.360153,0.35391 3.512095,0.14484 1.38994,-0.25227 2.628105,-1.04778 3.982786,-1.44829 1.342013,-0.39677 2.692223,-0.91484 4.091408,-0.94138 1.031843,-0.0196 2.081622,0.19997 3.041404,0.57931 1.19573,0.4726 3.258643,2.06381 3.258643,2.06381 0,0 -1.328597,-0.75104 -2.063808,-0.90518 -0.377991,-0.0792 -0.853186,-0.23635 -1.158629,0 -0.532477,0.41203 -0.139699,1.39086 -0.5069,1.95519 -0.77306,1.18806 -2.051805,2.03269 -3.331059,2.64312 -1.149558,0.54854 -2.456762,0.88695 -3.729336,0.83276 -1.12503,-0.0479 -2.23752,-0.46797 -3.222437,-1.0138 -0.861042,-0.47718 -1.558132,-1.21363 -2.244844,-1.91898 -0.227472,-0.23365 -0.355619,-0.56342 -0.615524,-0.76035 -0.754073,-0.57137 -1.320897,-0.36846 -2.100013,-0.90518 -0.484977,-0.33409 -1.737945,-1.48449 -1.737945,-1.48449 z"
       id="path73"
       sodipodi:nodetypes="cssssscssssssssscc" />
  </g>
</svg>
